<svg id="Capa_1" enable-background="new 0 0 512 512" height="512" viewBox="0 0 512 512" width="512" xmlns="http://www.w3.org/2000/svg"><path d="m428.081 462.323h.008l-172.089-428.824-172.089 428.824h.008c-.698 1.631-1.069 3.288-1.069 4.967 0 24.693 77.522 44.71 173.15 44.71s173.15-20.017 173.15-44.709c0-1.679-.371-3.336-1.069-4.968z" fill="#ffe55a"/><path d="m417.861 483.194c7.287-4.942 11.289-10.301 11.289-15.904 0-1.68-.371-3.336-1.069-4.967h.009l-172.09-428.824-9.291 23.152z" fill="#ffd500"/><circle cx="256" cy="27.958" fill="#ff4755" r="27.958"/><path d="m256 37.335c-12.183 0-22.54-7.795-26.371-18.668-1.024 2.907-1.587 6.032-1.587 9.29 0 15.441 12.517 27.958 27.958 27.958s27.958-12.517 27.958-27.958c0-3.258-.563-6.383-1.587-9.29-3.831 10.873-14.188 18.668-26.371 18.668z" fill="#fc2b3a"/><g fill="#ff4755"><path d="m324.397 203.936c-1.33-.147-2.68-.23-4.049-.23-20.097 0-36.39 16.292-36.39 36.39 0 20.097 16.292 36.39 36.39 36.39 11.218 0 21.247-5.08 27.923-13.06z"/><circle cx="267.812" cy="379.6" r="31.768"/><path d="m121.441 439.824c23.507 0 42.563-19.056 42.563-42.563 0-21.637-16.149-39.491-37.05-42.196l-30.7 76.501c7.053 5.188 15.761 8.258 25.187 8.258z"/><circle cx="215.717" cy="291.211" r="25.571"/></g><path d="m333.873 273.879c5.63-2.258 10.568-5.874 14.398-10.454l-23.873-59.489c-1.33-.147-2.68-.23-4.049-.23-4.801 0-9.381.939-13.578 2.628z" fill="#fc2b3a"/><path d="m383.283 350.671c-17.547 6.483-30.058 23.357-30.058 43.156 0 25.403 20.593 45.996 45.996 45.996 6.51 0 12.701-1.36 18.314-3.8z" fill="#ff4755"/><path d="m400.446 439.792c6.061-.16 11.83-1.482 17.089-3.768l-34.252-85.352c-5.573 2.059-10.634 5.169-14.951 9.085z" fill="#fc2b3a"/><path d="m210.001 197.869c25.403 0 45.996-20.593 45.996-45.996 0-19.84-12.561-36.746-30.165-43.199l-34.25 85.347c5.64 2.469 11.867 3.848 18.419 3.848z" fill="#ff4755"/><path d="m200.506 509.654c17.421 1.521 36.084 2.346 55.494 2.346 19.421 0 38.094-.826 55.524-2.348-1.232-29.599-25.607-53.22-55.509-53.22-29.903 0-54.279 23.622-55.509 53.222z" fill="#ff4755"/></svg>