<?xml version="1.0" encoding="iso-8859-1"?>
<!-- Generator: Adobe Illustrator 19.0.0, SVG Export Plug-In . SVG Version: 6.00 Build 0)  -->
<svg version="1.1" id="Layer_1" xmlns="http://www.w3.org/2000/svg" xmlns:xlink="http://www.w3.org/1999/xlink" x="0px" y="0px"
	 viewBox="0 0 512.003 512.003" style="enable-background:new 0 0 512.003 512.003;" xml:space="preserve">
<path style="fill:#B3404A;" d="M498.357,441.109h-73.085c-7.535,0-13.643-6.108-13.643-13.643c0-7.535,6.108-13.643,13.643-13.643
	h59.442v-2.806c0-65.828-25.634-127.71-72.18-174.25c-33.566-33.568-75.734-56.593-121.943-66.591
	c-17.095-3.696-34.644-5.57-52.156-5.57c-9.231,0-18.575,0.525-27.771,1.561l-2.493,0.28v46.257l3.176-0.422
	c8.723-1.158,17.623-1.745,26.453-1.745c53.215,0,105.102,21.365,142.355,58.618c22.652,22.648,39.109,49.388,48.916,79.478
	c2.334,7.164-1.58,14.864-8.744,17.198c-7.163,2.334-14.864-1.58-17.198-8.744c-8.461-25.964-22.682-49.057-42.265-68.637
	c-32.175-32.175-77.029-50.627-123.062-50.627c-7.635,0-15.327,0.508-22.863,1.508l-18.615,2.469
	c-3.89,0.517-7.827-0.671-10.785-3.263c-2.956-2.589-4.652-6.33-4.652-10.261v-74.022c0-6.944,5.216-12.781,12.116-13.557
	l14.609-1.645c10.206-1.149,20.578-1.733,30.824-1.733c19.448,0,38.937,2.082,57.926,6.189
	c51.344,11.108,98.188,36.684,135.469,73.963c51.701,51.694,80.172,120.429,80.172,193.545v16.449
	C512,435.001,505.892,441.109,498.357,441.109z"/>
<polygon style="fill:#F4B2B0;" points="195.627,294.671 13.643,189.603 195.627,84.534 "/>
<path style="fill:#B3404A;" d="M195.627,308.314c-2.356,0-4.711-0.61-6.822-1.828L6.822,201.419C2.6,198.982,0,194.479,0,189.604
	s2.6-9.378,6.822-11.815L188.806,72.721c4.221-2.437,9.422-2.437,13.643,0c4.221,2.437,6.822,6.94,6.822,11.815v210.137
	c0,4.875-2.6,9.378-6.822,11.815C200.338,307.704,197.982,308.314,195.627,308.314z M40.929,189.604l141.055,81.437V108.166
	L40.929,189.604z"/>
<g>
</g>
<g>
</g>
<g>
</g>
<g>
</g>
<g>
</g>
<g>
</g>
<g>
</g>
<g>
</g>
<g>
</g>
<g>
</g>
<g>
</g>
<g>
</g>
<g>
</g>
<g>
</g>
<g>
</g>
</svg>
